<mxfile host="app.diagrams.net" agent="Mozilla/5.0 (Windows NT 10.0; Win64; x64) AppleWebKit/537.36 (KHTML, like Gecko) Chrome/131.0.0.0 Safari/537.36" version="24.9.3">
  <diagram name="หน้า-1" id="c_iyQEyNUvknRYCzUH4e">
    <mxGraphModel dx="1050" dy="530" grid="1" gridSize="10" guides="1" tooltips="1" connect="1" arrows="1" fold="1" page="1" pageScale="1" pageWidth="827" pageHeight="1169" math="0" shadow="0">
      <root>
        <mxCell id="0" />
        <mxCell id="1" parent="0" />
        <mxCell id="zMLWqhUuHw24FXUZouCK-3" value="" style="edgeStyle=orthogonalEdgeStyle;rounded=0;orthogonalLoop=1;jettySize=auto;html=1;" edge="1" parent="1" source="zMLWqhUuHw24FXUZouCK-1" target="zMLWqhUuHw24FXUZouCK-2">
          <mxGeometry relative="1" as="geometry" />
        </mxCell>
        <mxCell id="zMLWqhUuHw24FXUZouCK-1" value="Start" style="ellipse;whiteSpace=wrap;html=1;" vertex="1" parent="1">
          <mxGeometry x="354" y="10" width="120" height="80" as="geometry" />
        </mxCell>
        <mxCell id="zMLWqhUuHw24FXUZouCK-5" value="" style="edgeStyle=orthogonalEdgeStyle;rounded=0;orthogonalLoop=1;jettySize=auto;html=1;" edge="1" parent="1" source="zMLWqhUuHw24FXUZouCK-2" target="zMLWqhUuHw24FXUZouCK-4">
          <mxGeometry relative="1" as="geometry" />
        </mxCell>
        <mxCell id="zMLWqhUuHw24FXUZouCK-2" value="Input start num" style="shape=parallelogram;perimeter=parallelogramPerimeter;whiteSpace=wrap;html=1;fixedSize=1;" vertex="1" parent="1">
          <mxGeometry x="354" y="180" width="120" height="60" as="geometry" />
        </mxCell>
        <mxCell id="zMLWqhUuHw24FXUZouCK-12" value="" style="edgeStyle=orthogonalEdgeStyle;rounded=0;orthogonalLoop=1;jettySize=auto;html=1;" edge="1" parent="1" source="zMLWqhUuHw24FXUZouCK-4" target="zMLWqhUuHw24FXUZouCK-11">
          <mxGeometry relative="1" as="geometry" />
        </mxCell>
        <mxCell id="zMLWqhUuHw24FXUZouCK-4" value="Input end num" style="shape=parallelogram;perimeter=parallelogramPerimeter;whiteSpace=wrap;html=1;fixedSize=1;" vertex="1" parent="1">
          <mxGeometry x="354" y="320" width="120" height="60" as="geometry" />
        </mxCell>
        <mxCell id="zMLWqhUuHw24FXUZouCK-17" value="F" style="edgeStyle=orthogonalEdgeStyle;rounded=0;orthogonalLoop=1;jettySize=auto;html=1;" edge="1" parent="1" source="zMLWqhUuHw24FXUZouCK-7" target="zMLWqhUuHw24FXUZouCK-16">
          <mxGeometry relative="1" as="geometry" />
        </mxCell>
        <mxCell id="zMLWqhUuHw24FXUZouCK-22" value="T" style="edgeStyle=orthogonalEdgeStyle;rounded=0;orthogonalLoop=1;jettySize=auto;html=1;" edge="1" parent="1" source="zMLWqhUuHw24FXUZouCK-7" target="zMLWqhUuHw24FXUZouCK-21">
          <mxGeometry relative="1" as="geometry" />
        </mxCell>
        <mxCell id="zMLWqhUuHw24FXUZouCK-7" value="start &amp;gt; end" style="rhombus;whiteSpace=wrap;html=1;" vertex="1" parent="1">
          <mxGeometry x="374" y="600" width="80" height="80" as="geometry" />
        </mxCell>
        <mxCell id="zMLWqhUuHw24FXUZouCK-13" value="" style="edgeStyle=orthogonalEdgeStyle;rounded=0;orthogonalLoop=1;jettySize=auto;html=1;" edge="1" parent="1" source="zMLWqhUuHw24FXUZouCK-11" target="zMLWqhUuHw24FXUZouCK-7">
          <mxGeometry relative="1" as="geometry" />
        </mxCell>
        <mxCell id="zMLWqhUuHw24FXUZouCK-11" value="" style="shape=waypoint;sketch=0;size=6;pointerEvents=1;points=[];fillColor=default;resizable=0;rotatable=0;perimeter=centerPerimeter;snapToPoint=1;" vertex="1" parent="1">
          <mxGeometry x="404" y="480" width="20" height="20" as="geometry" />
        </mxCell>
        <mxCell id="zMLWqhUuHw24FXUZouCK-19" value="" style="edgeStyle=orthogonalEdgeStyle;rounded=0;orthogonalLoop=1;jettySize=auto;html=1;" edge="1" parent="1" source="zMLWqhUuHw24FXUZouCK-16" target="zMLWqhUuHw24FXUZouCK-18">
          <mxGeometry relative="1" as="geometry" />
        </mxCell>
        <mxCell id="zMLWqhUuHw24FXUZouCK-16" value="Output start x 1 ... 9" style="shape=parallelogram;perimeter=parallelogramPerimeter;whiteSpace=wrap;html=1;fixedSize=1;" vertex="1" parent="1">
          <mxGeometry x="351" y="770" width="126" height="60" as="geometry" />
        </mxCell>
        <mxCell id="zMLWqhUuHw24FXUZouCK-18" value="start + 1" style="whiteSpace=wrap;html=1;" vertex="1" parent="1">
          <mxGeometry x="354" y="910" width="120" height="60" as="geometry" />
        </mxCell>
        <mxCell id="zMLWqhUuHw24FXUZouCK-20" style="edgeStyle=orthogonalEdgeStyle;rounded=0;orthogonalLoop=1;jettySize=auto;html=1;exitX=0.5;exitY=1;exitDx=0;exitDy=0;entryX=1.02;entryY=0.5;entryDx=0;entryDy=0;entryPerimeter=0;" edge="1" parent="1" source="zMLWqhUuHw24FXUZouCK-18" target="zMLWqhUuHw24FXUZouCK-11">
          <mxGeometry relative="1" as="geometry">
            <Array as="points">
              <mxPoint x="414" y="990" />
              <mxPoint x="500" y="990" />
              <mxPoint x="500" y="490" />
            </Array>
          </mxGeometry>
        </mxCell>
        <mxCell id="zMLWqhUuHw24FXUZouCK-21" value="End" style="ellipse;whiteSpace=wrap;html=1;" vertex="1" parent="1">
          <mxGeometry x="160" y="600" width="120" height="80" as="geometry" />
        </mxCell>
      </root>
    </mxGraphModel>
  </diagram>
</mxfile>
